<mxfile host="app.diagrams.net" modified="2023-05-10T06:32:35.895Z" agent="Mozilla/5.0 (Windows NT 10.0; Win64; x64) AppleWebKit/537.36 (KHTML, like Gecko) Chrome/112.0.0.0 Safari/537.36" etag="dgjyJbuG0Nx8zdHvGDS2" version="21.2.9" type="github">
  <diagram name="Page-1" id="DviJGH0TZYIdbR_7r9vJ">
    <mxGraphModel dx="2074" dy="1166" grid="1" gridSize="10" guides="1" tooltips="1" connect="1" arrows="1" fold="1" page="1" pageScale="1" pageWidth="850" pageHeight="1100" math="0" shadow="0">
      <root>
        <mxCell id="0" />
        <mxCell id="1" parent="0" />
        <mxCell id="k6GmwtdYvEUZhvx-tm-Q-7" style="edgeStyle=orthogonalEdgeStyle;rounded=0;orthogonalLoop=1;jettySize=auto;html=1;exitX=1;exitY=0.5;exitDx=0;exitDy=0;entryX=0;entryY=0.5;entryDx=0;entryDy=0;" edge="1" parent="1" source="k6GmwtdYvEUZhvx-tm-Q-1" target="k6GmwtdYvEUZhvx-tm-Q-2">
          <mxGeometry relative="1" as="geometry" />
        </mxCell>
        <mxCell id="k6GmwtdYvEUZhvx-tm-Q-1" value="portal" style="ellipse;whiteSpace=wrap;html=1;" vertex="1" parent="1">
          <mxGeometry x="70" y="130" width="120" height="80" as="geometry" />
        </mxCell>
        <mxCell id="k6GmwtdYvEUZhvx-tm-Q-8" style="edgeStyle=orthogonalEdgeStyle;rounded=0;orthogonalLoop=1;jettySize=auto;html=1;exitX=1;exitY=0.5;exitDx=0;exitDy=0;" edge="1" parent="1" source="k6GmwtdYvEUZhvx-tm-Q-2">
          <mxGeometry relative="1" as="geometry">
            <mxPoint x="520" y="170" as="targetPoint" />
          </mxGeometry>
        </mxCell>
        <mxCell id="k6GmwtdYvEUZhvx-tm-Q-2" value="VA&lt;br&gt;Bot engine" style="ellipse;whiteSpace=wrap;html=1;" vertex="1" parent="1">
          <mxGeometry x="280" y="130" width="120" height="80" as="geometry" />
        </mxCell>
        <mxCell id="k6GmwtdYvEUZhvx-tm-Q-3" value="VA&lt;br&gt;Bot engine" style="ellipse;whiteSpace=wrap;html=1;" vertex="1" parent="1">
          <mxGeometry x="580" y="450" width="120" height="80" as="geometry" />
        </mxCell>
        <mxCell id="k6GmwtdYvEUZhvx-tm-Q-4" value="VA&amp;nbsp;&lt;br&gt;Admin UI" style="rounded=1;whiteSpace=wrap;html=1;imageAspect=1;imageVerticalAlign=top;verticalAlign=top;" vertex="1" parent="1">
          <mxGeometry x="530" y="110" width="220" height="490" as="geometry" />
        </mxCell>
        <mxCell id="k6GmwtdYvEUZhvx-tm-Q-6" value="embedding store" style="ellipse;shape=cloud;whiteSpace=wrap;html=1;" vertex="1" parent="1">
          <mxGeometry x="560" y="400" width="160" height="100" as="geometry" />
        </mxCell>
        <mxCell id="k6GmwtdYvEUZhvx-tm-Q-10" value="IDOL" style="ellipse;whiteSpace=wrap;html=1;" vertex="1" parent="1">
          <mxGeometry x="280" y="300" width="120" height="80" as="geometry" />
        </mxCell>
        <mxCell id="k6GmwtdYvEUZhvx-tm-Q-11" value="RASA" style="ellipse;whiteSpace=wrap;html=1;" vertex="1" parent="1">
          <mxGeometry x="270" y="510" width="120" height="80" as="geometry" />
        </mxCell>
        <mxCell id="k6GmwtdYvEUZhvx-tm-Q-12" value="" style="endArrow=classic;startArrow=classic;html=1;rounded=0;entryX=-0.015;entryY=0.397;entryDx=0;entryDy=0;entryPerimeter=0;" edge="1" parent="1" target="k6GmwtdYvEUZhvx-tm-Q-4">
          <mxGeometry width="50" height="50" relative="1" as="geometry">
            <mxPoint x="400" y="340" as="sourcePoint" />
            <mxPoint x="450" y="290" as="targetPoint" />
          </mxGeometry>
        </mxCell>
        <mxCell id="k6GmwtdYvEUZhvx-tm-Q-13" value="" style="endArrow=classic;startArrow=classic;html=1;rounded=0;entryX=0;entryY=0.75;entryDx=0;entryDy=0;" edge="1" parent="1" target="k6GmwtdYvEUZhvx-tm-Q-4">
          <mxGeometry width="50" height="50" relative="1" as="geometry">
            <mxPoint x="390" y="550" as="sourcePoint" />
            <mxPoint x="440" y="500" as="targetPoint" />
          </mxGeometry>
        </mxCell>
        <mxCell id="k6GmwtdYvEUZhvx-tm-Q-14" value="" style="endArrow=classic;startArrow=classic;html=1;rounded=0;exitX=0.006;exitY=0.133;exitDx=0;exitDy=0;exitPerimeter=0;" edge="1" parent="1" source="k6GmwtdYvEUZhvx-tm-Q-4" target="k6GmwtdYvEUZhvx-tm-Q-6">
          <mxGeometry width="50" height="50" relative="1" as="geometry">
            <mxPoint x="520" y="170" as="sourcePoint" />
            <mxPoint x="620" y="230" as="targetPoint" />
          </mxGeometry>
        </mxCell>
      </root>
    </mxGraphModel>
  </diagram>
</mxfile>
